<svg width="48" height="48" viewBox="0 0 48 48" fill="none" xmlns="http://www.w3.org/2000/svg">
<rect width="48" height="48" rx="24" fill="#F2F2F8"/>
<path fill-rule="evenodd" clip-rule="evenodd" d="M24 14C24.9011 13.9997 25.7759 14.3037 26.4827 14.8627C27.1894 15.4218 27.6867 16.203 27.894 17.08C29.0462 17.2894 30.0884 17.8966 30.8388 18.7957C31.5892 19.6949 32.0001 20.8289 32 22V31C32 31.7956 31.6839 32.5587 31.1213 33.1213C30.5587 33.6839 29.7956 34 29 34H19C18.2044 34 17.4413 33.6839 16.8787 33.1213C16.3161 32.5587 16 31.7956 16 31V22C15.9999 20.8289 16.4108 19.6949 17.1612 18.7957C17.9116 17.8966 18.9538 17.2894 20.106 17.08C20.3133 16.203 20.8106 15.4218 21.5173 14.8627C22.2241 14.3037 23.0989 13.9997 24 14ZM27 30H21V32H27V30ZM26 26H22C21.7551 26 21.5187 26.09 21.3356 26.2527C21.1526 26.4155 21.0357 26.6397 21.007 26.883L21 27V28H27V27C27 26.7551 26.91 26.5187 26.7473 26.3356C26.5845 26.1526 26.3603 26.0357 26.117 26.007L26 26ZM25 21H23C22.7348 21 22.4804 21.1054 22.2929 21.2929C22.1054 21.4804 22 21.7348 22 22C22 22.2652 22.1054 22.5196 22.2929 22.7071C22.4804 22.8946 22.7348 23 23 23H25C25.2652 23 25.5196 22.8946 25.7071 22.7071C25.8946 22.5196 26 22.2652 26 22C26 21.7348 25.8946 21.4804 25.7071 21.2929C25.5196 21.1054 25.2652 21 25 21ZM24 16C23.6489 16 23.3041 16.0924 23 16.268C22.696 16.4435 22.4435 16.696 22.268 17H25.732C25.5565 16.696 25.304 16.4435 25 16.268C24.6959 16.0924 24.3511 16 24 16Z" fill="url(#paint0_linear_360_513)"/>
<defs>
<linearGradient id="paint0_linear_360_513" x1="24" y1="14" x2="24" y2="34" gradientUnits="userSpaceOnUse">
<stop stop-color="#FF2D55"/>
<stop offset="1" stop-color="#FF2D55" stop-opacity="0.73"/>
</linearGradient>
</defs>
</svg>
