<svg width="48" height="48" viewBox="0 0 48 48" fill="none" xmlns="http://www.w3.org/2000/svg">
<rect width="48" height="48" rx="24" fill="#007AFF"/>
<path fill-rule="evenodd" clip-rule="evenodd" d="M33.546 17.1109C33.8272 17.3922 33.9852 17.7737 33.9852 18.1714C33.9852 18.5692 33.8272 18.9507 33.546 19.2319L22.303 30.4749C22.1544 30.6236 21.978 30.7414 21.7839 30.8219C21.5898 30.9023 21.3817 30.9437 21.1715 30.9437C20.9614 30.9437 20.7533 30.9023 20.5591 30.8219C20.365 30.7414 20.1886 30.6236 20.04 30.4749L14.454 24.8899C14.3108 24.7516 14.1965 24.5861 14.1179 24.4031C14.0393 24.22 13.9979 24.0232 13.9962 23.824C13.9944 23.6249 14.0324 23.4274 14.1078 23.243C14.1832 23.0587 14.2946 22.8912 14.4354 22.7504C14.5763 22.6095 14.7438 22.4981 14.9281 22.4227C15.1124 22.3473 15.31 22.3093 15.5091 22.3111C15.7083 22.3128 15.9051 22.3542 16.0881 22.4328C16.2711 22.5114 16.4367 22.6257 16.575 22.7689L21.171 27.3649L31.424 17.1109C31.5633 16.9716 31.7287 16.861 31.9108 16.7855C32.0928 16.7101 32.288 16.6713 32.485 16.6713C32.6821 16.6713 32.8772 16.7101 33.0593 16.7855C33.2413 16.861 33.4067 16.9716 33.546 17.1109Z" fill="white"/>
</svg>
