<svg width="518" height="518" viewBox="0 0 518 518" fill="none" xmlns="http://www.w3.org/2000/svg">
<path d="M518 309.129C518 424.485 424.485 518 309.129 518C193.773 518 100.258 424.485 100.258 309.129C100.258 193.773 193.773 100.258 309.129 100.258C424.485 100.258 518 193.773 518 309.129ZM131.588 309.129C131.588 407.182 211.076 486.669 309.129 486.669C407.182 486.669 486.669 407.182 486.669 309.129C486.669 211.076 407.182 131.589 309.129 131.589C211.076 131.589 131.588 211.076 131.588 309.129Z" fill="#01488E"/>
<path d="M417.742 309.129C417.742 424.485 324.227 518 208.871 518C93.5147 518 0 424.485 0 309.129C0 193.773 93.5147 100.258 208.871 100.258C324.227 100.258 417.742 193.773 417.742 309.129ZM31.3306 309.129C31.3306 407.182 110.818 486.669 208.871 486.669C306.924 486.669 386.411 407.182 386.411 309.129C386.411 211.076 306.924 131.589 208.871 131.589C110.818 131.589 31.3306 211.076 31.3306 309.129Z" fill="#F5EA04"/>
<path d="M476.226 208.871C476.226 324.227 382.711 417.742 267.355 417.742C151.999 417.742 58.4839 324.227 58.4839 208.871C58.4839 93.5147 151.999 0 267.355 0C382.711 0 476.226 93.5147 476.226 208.871ZM89.8145 208.871C89.8145 306.924 169.302 386.411 267.355 386.411C365.408 386.411 444.895 306.924 444.895 208.871C444.895 110.818 365.408 31.3306 267.355 31.3306C169.302 31.3306 89.8145 110.818 89.8145 208.871Z" fill="#00B3F6"/>
</svg>
