<svg width="48" height="48" viewBox="0 0 48 48" fill="none" xmlns="http://www.w3.org/2000/svg">
<rect width="48" height="48" rx="24" fill="#FF9500"/>
<path d="M24 15C24.2549 15.0003 24.5 15.0979 24.6854 15.2728C24.8707 15.4478 24.9822 15.687 24.9972 15.9414C25.0121 16.1958 24.9293 16.4464 24.7657 16.6418C24.6021 16.8373 24.3701 16.9629 24.117 16.993L24 17H19C18.7551 17 18.5187 17.09 18.3356 17.2527C18.1526 17.4155 18.0357 17.6397 18.007 17.883L18 18V30C18 30.2449 18.09 30.4813 18.2527 30.6644C18.4155 30.8474 18.6397 30.9643 18.883 30.993L19 31H23.5C23.7549 31.0003 24 31.0979 24.1854 31.2728C24.3707 31.4478 24.4822 31.687 24.4972 31.9414C24.5121 32.1958 24.4293 32.4464 24.2657 32.6418C24.1021 32.8373 23.8701 32.9629 23.617 32.993L23.5 33H19C18.2348 33 17.4985 32.7077 16.9417 32.1827C16.385 31.6578 16.0499 30.9399 16.005 30.176L16 30V18C16 17.2348 16.2923 16.4985 16.8173 15.9417C17.3422 15.385 18.0601 15.0499 18.824 15.005L19 15H24ZM29.707 20.464L32.535 23.293C32.7225 23.4805 32.8278 23.7348 32.8278 24C32.8278 24.2652 32.7225 24.5195 32.535 24.707L29.707 27.536C29.5194 27.7235 29.2649 27.8288 28.9996 27.8287C28.7344 27.8286 28.48 27.7231 28.2925 27.5355C28.105 27.3479 27.9997 27.0934 27.9998 26.8281C27.9999 26.5629 28.1054 26.3085 28.293 26.121L29.414 25H24C23.7348 25 23.4804 24.8946 23.2929 24.7071C23.1054 24.5196 23 24.2652 23 24C23 23.7348 23.1054 23.4804 23.2929 23.2929C23.4804 23.1054 23.7348 23 24 23H29.414L28.293 21.879C28.1054 21.6915 27.9999 21.4371 27.9998 21.1719C27.9997 20.9066 28.105 20.6521 28.2925 20.4645C28.48 20.2769 28.7344 20.1714 28.9996 20.1713C29.2649 20.1712 29.5194 20.2765 29.707 20.464Z" fill="white"/>
</svg>
