<svg width="752" height="752" viewBox="0 0 752 752" fill="none" xmlns="http://www.w3.org/2000/svg">
<g clip-path="url(#clip0_233_1814)">
<path d="M655.705 362.945C665.266 411.727 684.642 510.597 638.273 576.738C555.413 694.929 271.444 689.855 147.017 536.974C138.327 526.297 65.4479 433.794 87.6467 316.153C116.252 164.558 286.95 54.88 422.425 84.6018C508.128 103.404 562.991 174.31 585.253 203.119C594.727 215.378 638.111 273.172 655.705 362.945Z" fill="#F4F7FA"/>
<path d="M203.863 358.339C204.026 358.464 204.189 358.588 204.353 358.712C214.04 366.045 225.922 372.349 240.594 376.571C243.511 377.192 246.429 377.813 249.347 378.434C253.477 372.166 256.284 365.465 248.138 360.608C235.488 353.065 241.225 328.918 247.123 321.351C254.422 311.985 270.971 289.828 251.598 277.859C235.471 267.895 223.027 264.761 227.491 241.887C231.954 219.012 223.188 201.827 202.385 198.008C180.493 193.99 170.063 160.869 150.001 166.008C115.045 174.963 130.356 231.714 164.111 255.55C197.866 279.385 173.022 287.449 167.356 305.661C159.621 330.524 195.062 333.733 201.567 345.908C203.771 350.032 204.268 354.311 203.863 358.339Z" fill="#0074F2"/>
<mask id="mask0_233_1814" style="mask-type:luminance" maskUnits="userSpaceOnUse" x="130" y="165" width="131" height="219">
<path d="M199.366 371.982L246.384 383.447C250.746 377.459 257.237 366.034 248.138 360.608C235.488 353.065 241.225 328.918 247.123 321.351C254.422 311.985 270.971 289.828 251.598 277.859C235.471 267.895 223.027 264.762 227.491 241.887C231.954 219.012 223.188 201.827 202.385 198.009C180.493 193.99 170.063 160.869 150.002 166.008C115.046 174.963 130.356 231.714 164.111 255.549C197.867 279.385 173.022 287.448 167.356 305.661C159.621 330.524 195.062 333.733 201.567 345.908C206.667 355.452 202.655 365.836 199.366 371.982Z" fill="white"/>
</mask>
<g mask="url(#mask0_233_1814)">
<g opacity="0.5">
<path d="M223.308 369.984L224.356 370.032C227.79 293.439 194.035 215.554 136.263 166.772L135.586 167.574C193.115 216.15 226.728 293.71 223.308 369.984Z" fill="#FCFDFE"/>
<path d="M221.603 328.065L222.621 328.318C229.888 299.077 260.586 282.505 260.895 282.341L260.404 281.414C260.091 281.58 228.985 298.363 221.603 328.065Z" fill="#FCFDFE"/>
<path d="M223.555 355.877L224.571 355.617C216.979 326.027 164.031 308.948 163.497 308.779L163.181 309.779C163.709 309.946 216.108 326.851 223.555 355.877Z" fill="#FCFDFE"/>
<path d="M201.199 255.74L202.234 255.567C198.237 231.666 220.569 201.966 220.795 201.669L219.961 201.034C219.732 201.334 197.128 231.397 201.199 255.74Z" fill="#FCFDFE"/>
<path d="M177.269 213.334L178.018 212.599C158.675 192.893 121.388 191.857 121.013 191.85L120.991 192.898C121.361 192.905 158.228 193.935 177.269 213.334Z" fill="#FCFDFE"/>
</g>
</g>
<mask id="mask1_233_1814" style="mask-type:luminance" maskUnits="userSpaceOnUse" x="138" y="96" width="157" height="313">
<path d="M266.698 408.304L214.695 408.127C214.695 408.127 204.996 381.418 217.804 362.635C243.936 324.312 208.547 304.099 194.992 293.416C174.549 277.305 163.56 254.191 193.733 244.248C223.905 234.304 193.777 187.494 157.012 166.233C121.035 145.427 137.259 69.468 219.262 107.349C268.234 129.971 260.375 181.948 262.646 209.14C264.918 236.331 305.339 238.717 291.39 271.878C279.475 300.203 256.948 320.81 274.02 340.369C291.091 359.929 292.789 381.8 266.698 408.304Z" fill="white"/>
</mask>
<g mask="url(#mask1_233_1814)">
<path d="M266.698 408.304L214.695 408.127C214.695 408.127 204.996 381.418 217.804 362.635C243.936 324.312 208.547 304.099 194.992 293.416C174.549 277.305 165.587 256.548 190.282 243.186C218.223 228.069 193.777 187.494 157.012 166.233C121.035 145.427 137.259 69.468 219.262 107.349C268.234 129.971 260.375 181.948 262.647 209.14C264.918 236.331 305.339 238.717 291.39 271.878C279.475 300.203 256.949 320.81 274.02 340.369C291.091 359.929 292.789 381.8 266.698 408.304Z" fill="#007AFF"/>
</g>
<mask id="mask2_233_1814" style="mask-type:luminance" maskUnits="userSpaceOnUse" x="138" y="96" width="157" height="313">
<path d="M266.698 408.304L214.695 408.127C214.695 408.127 204.996 381.418 217.804 362.635C243.936 324.312 208.547 304.099 194.992 293.416C174.549 277.305 163.56 254.191 193.733 244.248C223.905 234.304 193.777 187.494 157.012 166.233C121.035 145.427 137.259 69.468 219.262 107.349C268.234 129.971 260.375 181.948 262.646 209.14C264.918 236.331 305.339 238.717 291.39 271.878C279.475 300.203 256.948 320.81 274.02 340.369C291.091 359.929 292.789 381.8 266.698 408.304Z" fill="white"/>
</mask>
<g mask="url(#mask2_233_1814)">
<g opacity="0.5">
<path d="M244.174 413.054L243.095 412.852C243.22 412.184 255.48 345.218 247.617 275.168C240.374 210.634 214.072 130.199 129.903 113.494L130.116 112.417C167.585 119.853 196.898 140.316 217.242 173.238C233.493 199.537 244.081 233.798 248.711 275.068C256.587 345.278 244.299 412.384 244.174 413.054Z" fill="#BEB8F2"/>
<path d="M225.149 187.363L224.06 187.223C228.697 150.979 215.058 99.4257 214.92 98.9093L215.98 98.6249C216.119 99.1438 229.813 150.906 225.149 187.363Z" fill="#BEB8F2"/>
<path d="M210.992 165.799C174.114 142.648 139.548 153.579 139.204 153.692L138.861 152.649C139.211 152.534 174.246 141.434 211.576 164.869L210.992 165.799Z" fill="#BEB8F2"/>
<path d="M250.263 321.245C238.164 269.444 167.81 256.51 167.114 256.442L167.15 255.345C167.839 255.348 239.125 268.734 251.332 320.995L250.263 321.245Z" fill="#BEB8F2"/>
<path d="M250.676 299.314L249.602 299.086C256.627 265.876 292.754 243.131 293.118 242.905L293.697 243.838C293.336 244.062 257.602 266.567 250.676 299.314Z" fill="#BEB8F2"/>
<path d="M244.792 402.272C243.277 382.121 214.569 366.071 214.279 365.911L214.809 364.95C216.014 365.613 244.328 381.444 245.887 402.19L244.792 402.272Z" fill="#BEB8F2"/>
<path d="M247.909 386.453L246.827 386.265C249.57 370.524 273.437 353.059 281.279 347.32C282.388 346.509 283.344 345.809 283.49 345.65L284.308 346.383C284.105 346.609 283.471 347.076 281.928 348.206C274.173 353.88 250.575 371.148 247.909 386.453Z" fill="#BEB8F2"/>
</g>
</g>
<path d="M502.913 378.701C508.637 391.062 503.182 403.426 497.947 411.747C496.698 411.755 495.973 412.102 494.712 412.408C483.326 415.178 477.987 413.769 466.412 414.607C463.921 414.787 456.52 412.93 453.547 411.962L448.033 410.06C448.033 410.06 438.249 379.994 453.624 371.689C469 363.384 463.113 333.461 461.823 317.142C458.326 272.863 506.176 276.888 506.229 219.629C506.244 204.4 501.179 175.353 514.018 163.223C528.646 149.403 539.325 162.96 548.731 151.404C563.431 133.342 587.287 126.862 601.506 145.451C615.541 163.796 598.488 200.316 556.095 229.667C528.068 254.169 527.63 261.505 529.836 279.368C531.381 291.88 543.316 324.475 526.333 337.49C509.35 350.506 496.37 364.57 502.913 378.701Z" fill="#0074F2"/>
<mask id="mask3_233_1814" style="mask-type:luminance" maskUnits="userSpaceOnUse" x="445" y="134" width="162" height="288">
<path d="M490.557 421.867L448.962 411.153C448.962 411.153 438.249 379.994 453.624 371.689C469 363.384 463.113 333.461 461.824 317.142C458.326 272.864 506.176 276.888 506.229 219.629C506.244 204.4 501.179 175.353 514.018 163.223C528.646 149.404 539.325 162.96 548.731 151.404C563.431 133.342 587.287 126.863 601.506 145.451C615.541 163.796 598.488 200.316 556.095 229.667C528.068 254.17 527.63 261.505 529.836 279.368C531.381 291.88 543.316 324.475 526.333 337.49C509.35 350.506 496.37 364.57 502.913 378.701C512.869 400.202 490.557 421.867 490.557 421.867Z" fill="white"/>
</mask>
<g mask="url(#mask3_233_1814)">
<g opacity="0.5">
<path d="M472.439 415.072L471.594 414.967C472.221 409.932 472.917 404.862 473.66 399.898C479.166 363.144 487.904 328.234 499.631 296.137C509.569 268.94 521.786 243.378 535.944 220.161C547.33 201.49 560.028 184.227 573.684 168.852C583.285 158.043 593.256 148.272 603.322 139.811C605.076 138.336 606.952 136.925 608.766 135.561C611.184 133.745 613.684 131.866 615.913 129.819L616.489 130.446C614.229 132.521 611.712 134.413 609.278 136.243C607.473 137.6 605.606 139.003 603.87 140.463C593.836 148.898 583.894 158.64 574.321 169.418C560.698 184.754 548.031 201.977 536.671 220.605C522.542 243.774 510.349 269.285 500.431 296.429C488.724 328.472 480 363.326 474.502 400.024C473.76 404.981 473.065 410.044 472.439 415.072Z" fill="white"/>
<path d="M520.616 249.56L519.845 249.198C535.37 216.11 521.737 154.978 521.597 154.365L522.428 154.175C522.568 154.792 536.265 216.206 520.616 249.56Z" fill="white"/>
<path d="M485.301 345.929L484.493 345.66C492.413 321.938 536.822 303.627 537.269 303.445L537.591 304.234C537.146 304.415 493.096 322.578 485.301 345.929Z" fill="white"/>
<path d="M481.971 359.777L481.128 359.654C483.478 343.499 478.051 320.213 465.847 294.085C465.233 292.771 465.233 292.771 465.254 292.61L466.098 292.723L465.676 292.667L466.087 292.561C466.118 292.653 466.349 293.149 466.618 293.724C478.892 320.001 484.345 343.459 481.971 359.777Z" fill="white"/>
<path d="M473.714 405.9L472.942 405.542C480.514 389.233 506.395 382.797 506.655 382.734L506.856 383.561C506.599 383.624 481.113 389.965 473.714 405.9Z" fill="white"/>
<path d="M471.151 415.139C467.942 400.999 460.569 387.318 448.609 373.315L449.257 372.761C461.308 386.872 468.742 400.673 471.982 414.95L471.151 415.139Z" fill="white"/>
<path d="M566.427 178.605L565.677 178.201C575.334 160.285 581.327 139.224 583.296 132.304C583.772 130.629 583.942 130.04 584.037 129.845L584.802 130.217C584.732 130.367 584.459 131.325 584.114 132.537C582.139 139.48 576.128 160.607 566.427 178.605Z" fill="white"/>
<path d="M546.416 205.412L545.819 204.805C559.421 191.416 597.588 191.844 599.206 191.869L599.193 192.721C598.801 192.715 559.764 192.273 546.416 205.412Z" fill="white"/>
</g>
</g>
<mask id="mask4_233_1814" style="mask-type:luminance" maskUnits="userSpaceOnUse" x="426" y="212" width="217" height="290">
<path d="M435.374 485.786L484.997 501.34C484.997 501.34 502.317 478.812 495.787 457.036C482.464 412.606 522.307 404.038 538.458 397.954C562.816 388.777 580.278 370.068 554.524 351.467C528.77 332.867 571.64 297.355 613.112 288.205C653.696 279.25 661.196 201.94 571.578 213.257C518.058 220.015 509.835 271.935 499.449 297.167C489.063 322.4 449.812 312.454 453.083 348.28C455.877 378.882 471.119 405.334 448.933 418.817C426.748 432.3 418.516 452.634 435.374 485.786Z" fill="white"/>
</mask>
<g mask="url(#mask4_233_1814)">
<path d="M435.374 485.786L484.997 501.34C484.997 501.34 502.317 478.812 495.787 457.036C482.464 412.606 522.307 404.038 538.458 397.954C562.816 388.777 577.634 371.701 558.134 351.499C536.071 328.641 571.64 297.355 613.112 288.205C653.696 279.25 661.196 201.94 571.578 213.257C518.058 220.015 509.835 271.935 499.449 297.167C489.063 322.4 449.812 312.454 453.083 348.28C455.877 378.882 471.119 405.334 448.933 418.817C426.748 432.3 418.516 452.634 435.374 485.786Z" fill="#007AFF"/>
</g>
<mask id="mask5_233_1814" style="mask-type:luminance" maskUnits="userSpaceOnUse" x="426" y="212" width="217" height="290">
<path d="M435.374 485.786L484.997 501.34C484.997 501.34 502.317 478.812 495.787 457.036C482.464 412.606 522.307 404.038 538.458 397.954C562.816 388.777 580.278 370.068 554.524 351.467C528.77 332.867 571.64 297.355 613.112 288.205C653.696 279.25 661.196 201.94 571.578 213.257C518.058 220.015 509.835 271.935 499.449 297.167C489.063 322.4 449.812 312.454 453.083 348.28C455.877 378.882 471.119 405.334 448.933 418.817C426.748 432.3 418.516 452.634 435.374 485.786Z" fill="white"/>
</mask>
<g mask="url(#mask5_233_1814)">
<g opacity="0.5">
<path d="M455.407 497.123L456.497 497.257C456.58 496.582 465.139 429.044 493.812 364.65C520.227 305.325 569.617 236.607 654.898 246.13L655.02 245.038C617.057 240.799 582.929 251.443 553.583 276.673C530.141 296.828 509.691 326.284 492.8 364.223C464.066 428.767 455.491 496.447 455.407 497.123Z" fill="white"/>
<path d="M541.776 287.746L542.856 287.942C549.394 251.992 577.98 206.975 578.268 206.525L577.344 205.933C577.054 206.385 548.351 251.585 541.776 287.746Z" fill="white"/>
<path d="M561.789 271.471C603.941 260.553 633.585 281.423 633.879 281.635L634.52 280.744C634.222 280.529 604.183 259.357 561.514 270.408L561.789 271.471Z" fill="white"/>
<path d="M477.36 407.77C504.554 362.051 575.526 370.993 576.21 371.138L576.507 370.082C575.849 369.876 503.852 361.083 476.417 407.209L477.36 407.77Z" fill="white"/>
<path d="M483.597 386.74L484.69 386.848C488.034 353.068 460.474 320.466 460.195 320.14L459.361 320.854C459.637 321.177 486.895 353.432 483.597 386.74Z" fill="white"/>
<path d="M458.078 486.659C465.614 467.909 497.831 461.29 498.156 461.225L497.941 460.149C496.593 460.417 464.817 466.946 457.059 486.25L458.078 486.659Z" fill="white"/>
<path d="M459.89 470.639L460.978 470.786C463.122 454.952 445.652 431.089 439.912 423.248C439.101 422.139 438.4 421.183 438.309 420.988L437.308 421.439C437.433 421.716 437.897 422.353 439.026 423.896C444.702 431.649 461.975 455.244 459.89 470.639Z" fill="white"/>
</g>
</g>
<path d="M482.344 498.355C482.158 498.442 481.972 498.528 481.786 498.614C470.749 503.695 457.79 507.3 442.554 508.271C439.571 508.251 436.588 508.231 433.605 508.211C430.917 501.202 429.616 494.055 438.615 491.06C452.59 486.411 452.174 461.595 448.039 452.938C442.922 442.222 431.519 417.028 453.011 409.5C470.902 403.233 483.729 402.846 484.283 379.546C484.838 356.246 497.091 341.346 518.228 342.085C540.472 342.863 557.774 312.756 576.263 322.084C608.479 338.339 581.335 390.476 543.248 406.504C505.161 422.532 527.693 435.745 529.315 454.749C531.528 480.693 496.225 476.214 487.256 486.708C484.218 490.261 482.813 494.334 482.344 498.355Z" fill="#2B91FF"/>
<mask id="mask6_233_1814" style="mask-type:luminance" maskUnits="userSpaceOnUse" x="432" y="320" width="159" height="194">
<path d="M483.805 512.645L435.422 513.743C432.448 506.958 428.563 494.405 438.615 491.061C452.59 486.411 452.174 461.595 448.039 452.938C442.922 442.222 431.519 417.028 453.011 409.5C470.902 403.233 483.729 402.846 484.283 379.546C484.837 356.246 497.091 341.346 518.228 342.085C540.472 342.863 557.774 312.756 576.263 322.084C608.479 338.339 581.335 390.476 543.248 406.504C505.161 422.532 527.693 435.745 529.314 454.749C531.528 480.693 496.225 476.214 487.257 486.707C480.226 494.933 481.913 505.936 483.805 512.645Z" fill="white"/>
</mask>
<g mask="url(#mask6_233_1814)">
<g opacity="0.5">
<path d="M460.851 505.552L459.818 505.373C472.917 429.83 522.614 361.015 589.517 325.782L590.005 326.71C523.385 361.794 473.896 430.323 460.851 505.552Z" fill="#FCFDFE"/>
<path d="M471.521 464.977L470.472 465.006C469.656 434.886 443.235 412.106 442.968 411.88L443.647 411.08C443.917 411.31 470.691 434.383 471.521 464.977Z" fill="#FCFDFE"/>
<path d="M463.64 491.721L462.703 491.248C476.475 463.981 531.855 458.673 532.413 458.623L532.508 459.668C531.956 459.717 477.149 464.972 463.64 491.721Z" fill="#FCFDFE"/>
<path d="M506.985 398.724L506.011 398.333C515.049 375.848 499.618 342.044 499.461 341.705L500.412 341.264C500.571 341.607 516.19 375.824 506.985 398.724Z" fill="#FCFDFE"/>
<path d="M539.465 362.447L538.892 361.569C562.016 346.478 598.655 353.476 599.023 353.549L598.82 354.578C598.457 354.506 562.229 347.592 539.465 362.447Z" fill="#FCFDFE"/>
</g>
</g>
<path d="M504.094 97.5115V606.921C504.094 614.538 497.586 616.178 490.207 616.419L237.262 629.501L233.43 629.626C225.567 629.883 219.123 623.645 219.123 615.762V88.6695C219.123 80.7873 225.567 74.5489 233.43 74.8061L238.631 74.9762L492.501 94.7214C499.881 94.9628 504.094 89.8936 504.094 97.5115Z" fill="url(#paint0_linear_233_1814)"/>
<path d="M511.974 97.5115V606.921C511.974 614.538 505.946 620.968 498.566 621.21L241.31 629.626C233.447 629.883 227.003 623.645 227.003 615.762V88.6695C227.003 80.7873 233.447 74.5489 241.31 74.8061L498.566 83.2221C505.946 83.4635 511.974 89.8936 511.974 97.5115Z" fill="url(#paint1_linear_233_1814)"/>
<path d="M503.648 125.516V597.423C503.648 604.535 498.015 610.531 491.119 610.748L249.217 618.347C241.897 618.577 235.899 612.757 235.899 605.413V118.129C235.899 110.785 241.897 104.951 249.217 105.165L491.119 112.219C498.015 112.42 503.648 118.404 503.648 125.516Z" fill="white"/>
<path d="M376.697 94.8689C376.697 97.5532 374.559 99.6645 371.92 99.5846C369.279 99.5048 367.137 97.2613 367.137 94.5742C367.137 91.8869 369.279 89.7758 371.92 89.8587C374.559 89.9414 376.697 92.1846 376.697 94.8689Z" fill="#191A44"/>
<path d="M466.109 412.097L272.913 414.687C270.47 414.72 268.488 412.764 268.488 410.319V368.016C268.488 365.57 270.47 363.575 272.913 363.559L466.109 362.252C468.429 362.236 470.309 364.154 470.309 366.534V407.729C470.309 410.11 468.429 412.065 466.109 412.097Z" fill="#F4F7FA"/>
<path d="M465.67 490.02L273.374 494.596C270.677 494.661 268.488 492.524 268.488 489.823V448.444C268.488 445.744 270.677 443.517 273.374 443.471L465.67 440.173C468.233 440.129 470.309 442.225 470.309 444.854V485.148C470.309 487.778 468.233 489.959 465.67 490.02Z" fill="#F4F7FA"/>
<path d="M446.601 235.847C446.601 278.308 412.825 312.736 370.739 312.742C328.182 312.749 293.331 277.631 293.331 234.304C293.331 190.977 328.182 156.561 370.739 157.424C412.825 158.278 446.601 193.385 446.601 235.847Z" fill="white"/>
<path d="M402.018 212.069C402.018 229.565 388.049 243.617 370.76 243.455C353.408 243.292 339.295 228.883 339.295 211.271C339.295 193.66 353.408 179.609 370.76 179.888C388.049 180.166 402.018 194.574 402.018 212.069Z" fill="#007AFF"/>
<path d="M370.739 312.742C389.343 312.739 406.312 306.013 419.452 294.872C414.981 271.741 394.937 254.15 370.739 253.967C346.387 253.782 325.976 271.272 321.393 294.655C334.83 305.961 352.044 312.745 370.739 312.742Z" fill="#007AFF"/>
<path d="M397.332 394.102L291.892 395.252C288.304 395.291 285.367 392.378 285.367 388.779C285.367 385.18 288.304 382.208 291.892 382.175L397.332 381.204C400.818 381.172 403.668 384.045 403.668 387.589C403.668 391.133 400.818 394.064 397.332 394.102Z" fill="#007AFF"/>
<path d="M301.143 468.352C301.143 472.95 297.429 476.759 292.842 476.857C288.25 476.956 284.524 473.3 284.524 468.692C284.524 464.083 288.25 460.275 292.842 460.186C297.429 460.097 301.143 463.753 301.143 468.352Z" fill="#007AFF"/>
<path d="M332.231 467.716C332.231 472.296 328.547 476.088 323.998 476.186C319.443 476.284 315.747 472.643 315.747 468.053C315.747 463.463 319.443 459.67 323.998 459.582C328.547 459.494 332.231 463.136 332.231 467.716Z" fill="#007AFF"/>
<path d="M363.069 467.085C363.069 471.646 359.415 475.423 354.902 475.52C350.384 475.617 346.718 471.991 346.718 467.419C346.718 462.848 350.384 459.071 354.902 458.983C359.414 458.896 363.069 462.523 363.069 467.085Z" fill="#007AFF"/>
<path d="M393.658 466.459C393.658 471.002 390.033 474.763 385.557 474.86C381.075 474.956 377.438 471.344 377.438 466.791C377.438 462.238 381.075 458.476 385.557 458.389C390.033 458.303 393.658 461.915 393.658 466.459Z" fill="#007AFF"/>
<path d="M424.002 465.838C424.002 470.363 420.406 474.109 415.966 474.205C411.52 474.3 407.912 470.702 407.912 466.167C407.912 461.633 411.52 457.886 415.966 457.8C420.406 457.714 424.002 461.313 424.002 465.838Z" fill="#007AFF"/>
<path d="M370.727 314.627C349.619 314.627 329.735 306.272 314.735 291.099C299.717 275.907 291.446 255.737 291.446 234.304C291.446 212.691 299.837 192.564 315.074 177.633C330.047 162.961 349.823 155.11 370.777 155.54C391.612 155.963 411.156 164.551 425.808 179.723C440.432 194.866 448.486 214.798 448.486 235.847C448.486 256.903 440.428 276.681 425.795 291.538C411.134 306.424 391.582 314.624 370.739 314.627C370.735 314.627 370.731 314.627 370.727 314.627ZM369.163 159.293C349.807 159.293 331.59 166.727 317.713 180.326C303.205 194.542 295.216 213.712 295.216 234.304C295.216 254.738 303.1 273.967 317.417 288.449C331.702 302.899 350.636 310.857 370.727 310.858C370.732 310.858 370.734 310.858 370.739 310.858C411.53 310.851 444.716 277.201 444.716 235.847C444.716 194.472 411.513 160.137 370.701 159.309C370.189 159.299 369.674 159.293 369.163 159.293Z" fill="white"/>
<path opacity="0.3" d="M511.974 97.2204C511.974 89.6609 505.977 83.4643 498.422 83.2172L358.131 78.6278C410.169 133.773 421.869 180.039 423.205 211.656C427.017 301.904 349.27 341.224 363.726 439.92C367.69 466.976 376.454 483.969 379.877 530.708C382.796 570.556 379.745 603.538 376.706 625.196L498.567 621.209C505.946 620.968 511.974 614.538 511.974 606.92L511.974 97.2204Z" fill="#B2D7FF"/>
<path opacity="0.3" d="M304.259 351.465C305.738 307.994 290.842 289.821 286.894 285.369C284.106 282.225 281.524 279.997 262.248 264.084C247.927 252.261 235.991 242.46 227.52 235.517C227.347 357.298 227.175 479.079 227.003 600.86C232.774 554.116 243.866 518.864 252.306 496.353C275.93 433.341 302.361 407.244 304.259 351.465Z" fill="#B2D7FF"/>
<path d="M551.927 524.555C560.365 519.457 556.829 492.449 544.427 473.842C526.817 447.422 489.955 435.874 482.798 444.207C475.474 452.735 498.602 482.852 502.359 487.744C515.987 505.492 541.947 530.585 551.927 524.555Z" fill="#0074F2"/>
<path d="M647.738 636.273C646.292 638.187 646.217 641.481 647.755 642.964C649.266 644.421 651.222 643.053 657.083 642.707C663.362 642.336 665.129 643.669 669.28 642.116C670.957 641.488 673.891 640.065 673.723 638.842C673.606 637.982 672.02 637.674 666.704 636.404C659.156 634.602 659.176 634.465 657.597 634.346C653.63 634.047 649.648 633.746 647.738 636.273Z" fill="url(#paint2_linear_233_1814)"/>
<path d="M647.619 625.919L654.213 634.664C654.185 635.275 651.829 638.146 648.836 637.985L640.914 630.06L647.619 625.919Z" fill="url(#paint3_linear_233_1814)"/>
<path d="M613.67 658.536C612.264 660.481 612.258 663.775 613.827 665.225C615.368 666.651 617.295 665.242 623.148 664.772C629.418 664.269 631.212 665.565 635.329 663.925C636.993 663.262 639.896 661.777 639.703 660.558C639.568 659.701 637.976 659.427 632.633 658.269C625.05 656.626 625.068 656.489 623.486 656.403C619.514 656.187 615.526 655.97 613.67 658.536Z" fill="url(#paint4_linear_233_1814)"/>
<path d="M613.415 648.389L620.009 657.134C619.981 657.745 617.625 660.617 614.632 660.455L606.71 652.53L613.415 648.389Z" fill="url(#paint5_linear_233_1814)"/>
<path d="M413.754 448.545C423.624 444.764 438.754 440.233 457.572 439.532C478.758 438.742 495.773 438.107 507.896 447.681C548.229 479.534 528.459 563.477 525.544 572.816C522.077 583.921 515.482 591.466 515.482 591.466C511.526 595.991 507.643 598.635 505.541 600.026C475.201 620.102 456.341 632.581 436.427 627.482C433.777 626.804 421.737 622.628 415.091 612.611C413.906 610.825 413.166 608.537 412.979 605.339C409.886 552.498 416.117 499.442 413.754 448.545Z" fill="#007AFF"/>
<path opacity="0.3" d="M431.15 511.527C427.103 500.463 431.285 487.794 422.271 482.269C418.968 480.245 414.864 479.388 410.393 479.489C410.947 518.383 411.731 557.241 412.696 597.833C413.015 611.239 414.692 611.902 427.693 623.645C442.758 637.252 455.154 632.865 477.409 628.4C448.251 610.487 441 600.747 443.971 584.829C447.431 566.291 481.374 560.801 480.002 547.622C478.548 533.655 439.996 535.713 431.15 511.527Z" fill="#0074F2"/>
<path d="M423.058 449.247C413.042 443.653 390.01 459.568 377.426 473.29C371.577 479.666 351.213 501.87 357.547 530.435C358.579 535.091 363.345 556.857 384.553 566.813C403.542 575.728 428.606 572.314 448.252 557.948C450.923 555.641 453.596 553.335 456.268 551.028C458.879 548.286 461.49 545.544 464.101 542.802C459.722 539.766 452.312 535.428 442.036 532.852C426.379 528.925 419.333 534.425 415.464 530.162C410.701 524.914 421.321 515.866 424.105 492.763C424.856 486.528 434.246 455.497 423.058 449.247Z" fill="#2B91FF"/>
<path d="M441.242 621.099C442.475 643.112 450.751 630.919 469.485 611.168C489.215 590.366 535.638 553.807 566.623 567.764C589.7 578.159 587.46 608.91 624.353 628.211C630.852 631.61 636.54 633.56 640.037 634.619C644.033 630.922 648.03 627.226 652.027 623.53C649.882 612.035 640.308 568.204 600.281 540.574C590.604 533.894 572.137 521.027 548.784 521.329C485.65 522.143 440.105 600.797 441.242 621.099Z" fill="#383E7D"/>
<path d="M412.155 610.888C412.419 623.696 420.782 635.436 430.204 641.169C451.12 653.893 482.442 640.164 499.985 626.124C521.333 609.043 521.325 592.307 532.233 592.389C549.183 592.517 552.138 633.048 589.963 652.836C596.462 656.235 602.15 658.184 605.647 659.244C609.644 655.548 613.64 651.851 617.636 648.154C611.077 623.334 600.922 605.299 593.433 594.075C584.092 580.074 575.1 566.597 557.688 556.831C539.354 546.547 521.837 546.07 514.395 545.953C467.446 545.221 411.466 577.472 412.155 610.888Z" fill="#444B8C"/>
<path d="M539.602 533.952L423.382 554.91L457.108 563.749L541.378 541.449L539.602 533.952Z" fill="#272B55"/>
<path d="M419.895 558.79L419.895 558.791C420.319 560.96 422.056 562.631 424.239 562.973L464.109 570.24L462.308 560.142L423.382 554.91C421.218 554.722 419.478 556.66 419.895 558.79Z" fill="#191A44"/>
<path d="M438.569 549.67C437.827 549.65 440.374 540.512 443.84 540.83C447.306 541.149 465.159 547.302 467.366 550.843C469.572 554.384 469.573 554.384 469.573 554.384C469.573 554.384 462.685 556.299 458.062 555.691C453.439 555.083 444.605 549.827 438.569 549.67Z" fill="url(#paint6_linear_233_1814)"/>
<path d="M458.746 487.616L456.196 563.814C456.108 566.443 460.054 570.05 462.664 569.727L583.847 552.99C585.841 552.743 587.394 551.144 587.583 549.144L597.312 474.998C597.566 472.307 592.583 469.927 589.895 470.208L462.58 483.502C460.454 483.724 458.818 485.48 458.746 487.616Z" fill="url(#paint7_linear_233_1814)"/>
<path d="M461.697 489.608L459.146 565.806C459.058 568.436 461.34 570.521 463.951 570.198L586.798 554.982C588.791 554.735 590.345 553.136 590.534 551.136L597.552 476.86C597.806 474.169 595.534 471.919 592.845 472.2L465.53 485.493C463.404 485.715 461.768 487.472 461.697 489.608Z" fill="#444B8C"/>
<path opacity="0.3" d="M538.411 540.853C527.298 537.11 530.436 528.119 516.899 518.245C499.04 505.217 482.418 512.721 475.59 502.09C473.464 498.778 472.165 493.474 474.75 484.531L465.53 485.493C463.404 485.715 461.768 487.472 461.697 489.608L459.146 565.806C459.059 568.435 461.34 570.521 463.951 570.198L586.798 554.982C588.791 554.735 590.345 553.136 590.534 551.136L591.502 540.887C587.603 539.09 582.989 537.537 577.692 536.875C559.325 534.583 551.204 545.163 538.411 540.853Z" fill="#25254F"/>
<path d="M458.467 410.512C458.827 418.364 458.183 424.626 457.514 428.923C456.747 433.846 456.11 435.134 455.275 436.192C455.275 436.192 455.011 436.526 454.71 436.827C453.943 437.592 444.309 439.469 441.471 440.132C441.17 440.202 435.61 441.554 434.013 444.544C434.002 444.565 433.971 444.623 433.954 444.712C433.405 447.701 450.484 457.182 467.648 454.101C478.152 452.215 487.534 445.832 486.826 442.69C486.114 439.528 475.629 441.631 472.27 435.988C469.933 432.063 472.172 426.282 474.894 421.463C471.89 416.309 461.47 415.666 458.467 410.512Z" fill="url(#paint8_linear_233_1814)"/>
<path d="M481.001 419.67C487.712 417.722 492.042 394.609 486.395 391.815C483.694 390.479 481.694 395.265 470.931 399.547C462.316 402.975 458.676 401.867 456.291 405.648C453.936 409.382 455.384 414.79 456.126 418.625C456.447 420.29 457.524 421.074 458.374 422.466C459.55 424.396 461.384 427.457 464.355 432.554C464.934 431.371 465.737 429.927 466.841 428.412C467.266 427.829 468.956 425.558 473.955 422.162C477.149 419.992 480.233 419.893 481.001 419.67Z" fill="url(#paint9_linear_233_1814)"/>
<path d="M459.57 427.762C459.57 427.762 462.333 435.829 471.086 437.174C478.922 438.377 483.88 421.303 479.758 416.536C478.382 414.946 475.198 413.709 472.351 413.868C470.67 413.962 469.988 414.501 467.238 414.601C464.701 414.694 464.082 414.278 463.223 414.728C462.149 415.29 461.073 417.013 461.467 422.411C460.322 420.593 458.68 419.63 457.295 419.945C457.074 419.996 456.464 420.239 456.045 420.72C454.528 422.46 455.777 425.386 459.57 427.762Z" fill="url(#paint10_linear_233_1814)"/>
<path d="M463.103 413.614C463.414 413.974 461.968 415.113 461.449 417.061C460.44 420.843 463.293 426.281 467.15 427.541C469.431 428.286 470.382 427.022 474.326 427.466C476.767 427.741 478.687 428.483 479.876 429.032C480.162 433.488 478.1 437.413 474.873 438.732C471.398 440.152 467.828 438.036 466.335 437.151C465.337 436.559 462.135 434.67 461.031 431.108C459.88 427.395 462.163 425.815 460.5 423.108C459.661 421.743 458.341 420.941 457.431 418.456C457.184 417.781 457.048 417.202 456.972 416.816C459.431 415.143 462.652 413.093 463.103 413.614Z" fill="url(#paint11_linear_233_1814)"/>
<path d="M476.729 429.965C476.729 429.965 474.868 430.468 472.02 429.67C471.882 429.63 471.718 429.637 471.684 429.706C471.558 429.965 473.136 431.6 474.946 431.497C476.232 431.424 477.426 430.487 477.328 430.159C477.286 430.021 477.009 429.977 476.729 429.965Z" fill="url(#paint12_linear_233_1814)"/>
<path d="M93.0889 338.424C89.868 328.962 92.1238 318.086 97.0945 310.483C105.494 297.637 116.443 302.102 127.408 287.856C134.502 278.641 140.957 270.771 148.833 264.877C154.627 260.541 168.338 255.63 173.694 259.039C189.719 269.24 160.316 356.099 127.898 361.043C114.926 363.021 97.9305 352.646 93.0889 338.424Z" fill="#0074F2"/>
<path d="M154.584 612.713C155.439 614.539 156.406 617.213 156.661 620.541C156.773 622 156.728 623.322 156.612 624.469C155.671 625.856 151.273 630.617 145.333 631.792C141.659 632.519 135.702 629.404 142.45 625.188C149.198 620.972 150.206 619.957 148.223 609.18C147.713 606.407 147.913 605.393 148.349 605.198C149.366 604.742 152.264 608.994 154.584 612.713Z" fill="url(#paint13_linear_233_1814)"/>
<path d="M185.704 620.945C186.559 622.771 187.526 625.445 187.781 628.773C187.893 630.232 187.848 631.554 187.731 632.701C186.791 634.087 182.393 638.849 176.453 640.024C172.778 640.751 166.822 637.636 173.57 633.42C180.318 629.204 181.326 628.189 179.343 617.412C178.833 614.639 179.033 613.624 179.469 613.429C180.486 612.974 183.384 617.226 185.704 620.945Z" fill="url(#paint14_linear_233_1814)"/>
<path d="M218.067 395.788C220.299 409.374 222.53 422.96 224.761 436.546C219.874 449.399 215.33 463.403 211.48 478.527C197.573 533.158 188.901 585.776 188.267 623.467C185.205 624.575 182.144 625.682 179.083 626.79C173.597 606.077 175.255 574.759 170.378 537.827C164.616 494.195 168.534 460.085 166.528 459.966C164.606 459.851 159.222 491.078 159.212 526.739C159.202 564.436 154.866 594.786 157.661 616.574C153.993 616.793 150.325 617.012 146.657 617.231C136.5 588.417 132.061 554.088 126.919 508.695C123.348 477.171 119.133 435.294 140.193 392.089C142.296 387.774 149.638 378.197 151.015 375.83C175.165 380.451 193.917 391.167 218.067 395.788Z" fill="#444B8C"/>
<path opacity="0.25" d="M211.48 478.527C215.33 463.403 219.875 449.399 224.761 436.546C222.53 422.96 220.299 409.374 218.068 395.788C193.917 391.167 175.165 380.452 151.015 375.831C149.638 378.197 142.297 387.774 140.194 392.089C133.094 406.653 128.875 421.065 126.527 434.982C173.251 434.471 186.772 444.201 190.495 453.169C196.421 467.446 178.398 481.924 184.775 510.817C186.692 519.507 189.556 523.789 189.893 534.674C190.334 548.959 185.672 550.344 184.942 564.875C184.143 580.773 178.636 596.312 181.218 607.582C182.823 614.588 184.703 620.285 186.147 624.234C186.854 623.979 187.56 623.723 188.267 623.467C188.901 585.776 197.573 533.159 211.48 478.527Z" fill="#444B8C"/>
<path d="M198.048 207.245C199.546 209.247 197.32 211.934 196.876 221.712C196.673 226.185 196.942 229.935 197.244 232.599C197.329 235.009 197.465 237.244 197.653 239.218C197.791 240.666 197.939 241.798 198.147 243.003C198.532 245.238 199.085 247.454 199.788 249.59C199.835 249.731 199.765 249.882 199.631 249.94C199.623 249.944 199.615 249.947 199.607 249.949C199.457 249.999 199.296 249.918 199.247 249.768C198.534 247.606 197.975 245.362 197.585 243.1C197.374 241.88 197.225 240.735 197.085 239.272C196.986 238.231 196.903 237.114 196.832 235.945C196.512 239.027 196.446 242.431 197.542 246.978C200.868 260.777 190.157 269.859 181.716 270.225C171.981 270.646 165.382 262.931 163.341 260.407C155.116 250.232 153.532 233.65 161.268 221.522C171.402 205.635 194.376 202.339 198.048 207.245Z" fill="#191A44"/>
<path d="M173.431 220.53C173.847 218.988 175.731 212.699 181.487 208.756C192.409 201.276 209.915 207.278 219.952 216.087C230.455 225.305 226.087 231.681 236.411 241.916C247.625 253.033 255.494 248.178 271.08 258.916C277.21 263.14 293.732 274.523 294.836 292.28C295.79 307.625 284.938 322.991 271.66 328.919C248.928 339.068 220.46 320.943 207.028 304.275C194.146 288.289 202.838 284.375 184.523 253.5C177.9 242.337 170.318 232.056 173.431 220.53Z" fill="#191A44"/>
<path d="M157.049 265.285C148.745 273.691 146.509 283.797 145.855 288.314C143.82 302.365 149.338 313.826 150.635 316.837C156.758 331.062 154.502 359.099 118.808 419.473C122.201 422.301 133.899 443.236 139.432 433.197C146.976 419.51 181.198 323.206 148.192 437.331C147.757 438.835 151.12 438.532 152.649 439.103C163.612 443.197 176.779 446.177 191.739 445.991C215.185 445.699 233.051 437.752 242.496 432.644C236.091 417.712 229.387 397.503 226.518 372.976C221.046 326.185 232.432 288.45 240.368 268.102C233.132 263.099 210.212 248.612 183.094 253.294C176.338 254.46 165.796 256.43 157.049 265.285Z" fill="#007AFF"/>
<path opacity="0.3" d="M226.519 372.976C221.046 326.185 232.433 288.45 240.369 268.102C233.132 263.099 210.213 248.612 183.095 253.294C176.338 254.461 165.796 256.431 157.049 265.285C150.438 271.978 147.678 279.739 146.496 284.909C146.698 284.875 146.977 284.83 147.31 284.784C164.011 282.477 183.299 295.913 189.893 308.623C200.898 329.834 175.583 347.165 176.217 380.779C176.559 398.951 184.457 420.437 208.601 444.432C223.778 441.81 235.47 436.444 242.496 432.644C236.092 417.712 229.387 397.503 226.519 372.976Z" fill="#007AFF"/>
<path d="M189.435 236.466C187.056 241.295 185.047 247.335 187.667 251.387C189.263 253.856 191.904 255.231 194.513 256.527C200.678 259.589 203.539 258.346 204.756 260.204C207.435 264.293 199.851 279.9 187.48 281.255C175.168 282.604 164.027 269.19 165.88 263.525C167.552 258.412 179.672 260.015 181.838 253.554C182.929 250.302 180.932 246.69 179.18 244.244L177.73 244.371L189.435 236.466Z" fill="url(#paint15_linear_233_1814)"/>
<path opacity="0.4" d="M204.756 260.204C203.539 258.346 200.678 259.589 194.513 256.527C191.904 255.231 189.263 253.855 187.667 251.387C185.047 247.335 187.056 241.295 189.435 236.466L177.729 244.371L179.179 244.244C180.57 246.185 182.089 248.861 182.122 251.509C182.973 252.097 183.691 252.743 184.2 253.369C182.586 256.852 182.038 259.859 181.828 261.804C181.501 264.836 181.258 267.088 182.558 269.216C183.978 271.537 186.403 272.351 188.523 273.062C193.234 274.642 197.636 274.117 200.528 273.424C204.527 268.428 206.26 262.5 204.756 260.204Z" fill="url(#paint16_linear_233_1814)"/>
<path d="M187.274 241.119C187.274 241.119 187.684 247.32 181.649 248.358C174.214 249.637 170.116 230.138 171.739 228.714C173.621 227.063 175.987 229.944 180.687 228.019C182.665 227.209 184.002 224.267 185.52 226.944C187.246 229.99 187.201 235.898 187.201 235.898C187.201 235.898 188.726 234.145 189.29 235.854C190.027 238.091 188.544 239.813 187.274 241.119Z" fill="url(#paint17_linear_233_1814)"/>
<path d="M176.181 218.536C173.548 220.718 171.746 225.294 173.151 227.833C175.17 231.482 182.551 228.656 184.988 233.115C186.057 235.07 185.721 237.596 186.378 237.622C186.921 237.644 187.422 235.922 187.883 234.51C190.422 226.728 192.499 226.04 192.131 223.698C191.382 218.938 181.587 214.056 176.181 218.536Z" fill="#191A44"/>
<path d="M219.877 267.432C228.078 267.952 228.902 265.492 237.979 272.142C264.044 291.237 280.951 345.096 255.104 371.127C240.728 385.606 214.493 394.446 192.174 383.395C174.005 374.399 167.304 356.615 165.677 351.852C165.976 347.078 166.275 342.305 166.574 337.531C176.779 348.54 185.547 351.322 191.906 351.663C202.732 352.243 207.229 345.782 225.746 344.762C232.959 344.364 236.988 345.085 237.83 343.122C239.569 339.064 223.826 332.525 216.412 320.496C211.007 311.727 207.733 296.312 219.877 267.432Z" fill="#2B91FF"/>
<path d="M187.888 227.149C186.04 228.792 189.06 235.178 195.174 247.885C198.938 255.705 200.82 259.616 202.11 261.355C209.054 270.724 221.584 278.684 235.023 279.326C244.246 279.766 245.954 276.381 253.34 278.414C264.483 281.481 269.962 291.762 270.528 291.309C271.154 290.809 265.103 277.749 251.462 265.968C240.301 256.328 236.767 258.52 219.063 244.937C217.779 243.951 212.345 239.756 204.612 234.867C195.521 229.12 189.727 225.515 187.888 227.149Z" fill="#191A44"/>
<path d="M115.323 299.08L134.279 345.975C134.6 346.844 135.304 347.516 136.187 347.796L158.039 354.737C160.296 355.454 162.457 353.399 161.854 351.108L150.172 306.773C149.904 305.758 149.14 303.507 147.205 302.892L120.588 295.199C118.215 294.496 114.465 296.76 115.323 299.08Z" fill="#31336F"/>
<path d="M115.082 299.823L131.866 345.209C132.188 346.077 132.892 346.749 133.775 347.03L155.627 353.97C157.884 354.687 160.044 352.632 159.441 350.342L147.759 306.006C147.492 304.992 146.714 304.19 145.708 303.892L118.754 295.901C116.382 295.197 114.224 297.503 115.082 299.823Z" fill="#444B8C"/>
<path d="M167.741 341.369L165.442 339.224C165.442 339.224 162.176 334.756 159.714 332.592C157.254 330.428 154.843 329.992 152.23 332.074C149.617 334.156 151.837 337.601 153.726 340.606C154.875 342.434 158.114 343.593 160.81 344.294C162.705 344.787 166.025 347.262 166.025 347.262L167.741 341.369Z" fill="url(#paint18_linear_233_1814)"/>
<path d="M117.632 320.853L119.796 318.571C119.796 318.571 124.291 315.341 126.474 312.898C128.658 310.454 129.114 308.048 127.053 305.418C124.992 302.788 121.529 304.98 118.509 306.844C116.672 307.979 115.487 311.209 114.764 313.899C114.255 315.79 111.753 319.09 111.753 319.09L117.632 320.853Z" fill="url(#paint19_linear_233_1814)"/>
<path d="M111.393 316.242C114.195 317.64 116.998 319.036 119.799 320.434C120.657 321.525 130.866 334.927 125.416 347.779C124.707 349.45 122.026 355.772 116.74 356.891C108.583 358.618 96.6987 347.436 97.0822 335.432C97.339 327.387 103.074 319.996 111.393 316.242Z" fill="#2B91FF"/>
</g>
<defs>
<linearGradient id="paint0_linear_233_1814" x1="563.543" y1="530.621" x2="319.777" y2="322.677" gradientUnits="userSpaceOnUse">
<stop stop-color="#444B8C"/>
<stop offset="0.9964" stop-color="#26264F"/>
</linearGradient>
<linearGradient id="paint1_linear_233_1814" x1="359.984" y1="603.303" x2="393.399" y2="-294.976" gradientUnits="userSpaceOnUse">
<stop stop-color="#444B8C"/>
<stop offset="0.9964" stop-color="#26264F"/>
</linearGradient>
<linearGradient id="paint2_linear_233_1814" x1="671.871" y1="633.83" x2="647.417" y2="642.954" gradientUnits="userSpaceOnUse">
<stop stop-color="#444B8C"/>
<stop offset="0.9964" stop-color="#26264F"/>
</linearGradient>
<linearGradient id="paint3_linear_233_1814" x1="656.816" y1="637.426" x2="635.48" y2="623.827" gradientUnits="userSpaceOnUse">
<stop stop-color="#FFC444"/>
<stop offset="0.9964" stop-color="#F36F56"/>
</linearGradient>
<linearGradient id="paint4_linear_233_1814" x1="637.746" y1="655.586" x2="613.49" y2="665.223" gradientUnits="userSpaceOnUse">
<stop stop-color="#444B8C"/>
<stop offset="0.9964" stop-color="#26264F"/>
</linearGradient>
<linearGradient id="paint5_linear_233_1814" x1="622.612" y1="659.896" x2="601.276" y2="646.298" gradientUnits="userSpaceOnUse">
<stop stop-color="#FFC444"/>
<stop offset="0.9964" stop-color="#F36F56"/>
</linearGradient>
<linearGradient id="paint6_linear_233_1814" x1="438.772" y1="551.13" x2="467.823" y2="545.443" gradientUnits="userSpaceOnUse">
<stop stop-color="#FFC444"/>
<stop offset="0.9964" stop-color="#F36F56"/>
</linearGradient>
<linearGradient id="paint7_linear_233_1814" x1="540.287" y1="536.02" x2="509.516" y2="498.702" gradientUnits="userSpaceOnUse">
<stop stop-color="#444B8C"/>
<stop offset="0.9964" stop-color="#26264F"/>
</linearGradient>
<linearGradient id="paint8_linear_233_1814" x1="448.176" y1="472.201" x2="479.525" y2="400.133" gradientUnits="userSpaceOnUse">
<stop stop-color="#FFC444"/>
<stop offset="0.9964" stop-color="#F36F56"/>
</linearGradient>
<linearGradient id="paint9_linear_233_1814" x1="439.169" y1="457.869" x2="481.573" y2="394.374" gradientUnits="userSpaceOnUse">
<stop stop-color="#444B8C"/>
<stop offset="0.9964" stop-color="#26264F"/>
</linearGradient>
<linearGradient id="paint10_linear_233_1814" x1="469.254" y1="417.229" x2="457.094" y2="490.302" gradientUnits="userSpaceOnUse">
<stop stop-color="#FFC444"/>
<stop offset="0.9964" stop-color="#F36F56"/>
</linearGradient>
<linearGradient id="paint11_linear_233_1814" x1="449.806" y1="452.981" x2="480.142" y2="407.555" gradientUnits="userSpaceOnUse">
<stop stop-color="#444B8C"/>
<stop offset="0.9964" stop-color="#26264F"/>
</linearGradient>
<linearGradient id="paint12_linear_233_1814" x1="475.441" y1="427.206" x2="472.456" y2="436.053" gradientUnits="userSpaceOnUse">
<stop stop-color="#FFC444"/>
<stop offset="1" stop-color="#F36F56"/>
</linearGradient>
<linearGradient id="paint13_linear_233_1814" x1="140.554" y1="617.923" x2="157.125" y2="619.712" gradientUnits="userSpaceOnUse">
<stop stop-color="#AA80F9"/>
<stop offset="0.9964" stop-color="#6165D7"/>
</linearGradient>
<linearGradient id="paint14_linear_233_1814" x1="171.674" y1="626.155" x2="188.245" y2="627.944" gradientUnits="userSpaceOnUse">
<stop stop-color="#AA80F9"/>
<stop offset="0.9964" stop-color="#6165D7"/>
</linearGradient>
<linearGradient id="paint15_linear_233_1814" x1="186.232" y1="298.994" x2="184.523" y2="218.124" gradientUnits="userSpaceOnUse">
<stop stop-color="#FFC444"/>
<stop offset="0.9964" stop-color="#F36F56"/>
</linearGradient>
<linearGradient id="paint16_linear_233_1814" x1="186.687" y1="287.729" x2="195.983" y2="222.14" gradientUnits="userSpaceOnUse">
<stop stop-color="#FFC444"/>
<stop offset="0.9964" stop-color="#F36F56"/>
</linearGradient>
<linearGradient id="paint17_linear_233_1814" x1="179.774" y1="230.423" x2="191.677" y2="298.165" gradientUnits="userSpaceOnUse">
<stop stop-color="#FFC444"/>
<stop offset="0.9964" stop-color="#F36F56"/>
</linearGradient>
<linearGradient id="paint18_linear_233_1814" x1="153.078" y1="331.399" x2="174.36" y2="358.103" gradientUnits="userSpaceOnUse">
<stop stop-color="#FFC444"/>
<stop offset="0.9964" stop-color="#F36F56"/>
</linearGradient>
<linearGradient id="paint19_linear_233_1814" x1="127.721" y1="306.271" x2="100.846" y2="327.336" gradientUnits="userSpaceOnUse">
<stop stop-color="#FFC444"/>
<stop offset="0.9964" stop-color="#F36F56"/>
</linearGradient>
<clipPath id="clip0_233_1814">
<rect width="752" height="752" fill="white"/>
</clipPath>
</defs>
</svg>
