<svg width="26" height="26" viewBox="0 0 26 26" fill="none" xmlns="http://www.w3.org/2000/svg">
<g clip-path="url(#clip0_341_471)">
<path d="M5.18668 3.19734C7.26957 1.14592 10.0765 -0.00272829 13 4.86641e-06C15.928 4.86641e-06 18.7387 1.148 20.8133 3.19734C22.692 5.05067 23.6707 7.12534 23.9293 9.28001C24.1867 11.416 23.7267 13.56 22.8493 15.5707C21.108 19.5707 17.6467 23.208 14.3267 25.5747C13.9397 25.8515 13.4758 26.0004 13 26.0004C12.5242 26.0004 12.0603 25.8515 11.6733 25.5747C8.35335 23.208 4.89201 19.5693 3.14935 15.5707C2.27335 13.56 1.81468 11.416 2.07068 9.27867C2.32935 7.12534 3.30801 5.052 5.18668 3.19734ZM9.33335 10.3333C9.33335 9.36088 9.71965 8.42825 10.4073 7.74061C11.0949 7.05298 12.0276 6.66667 13 6.66667C13.9725 6.66667 14.9051 7.05298 15.5927 7.74061C16.2804 8.42825 16.6667 9.36088 16.6667 10.3333C16.6667 11.3058 16.2804 12.2384 15.5927 12.9261C14.9051 13.6137 13.9725 14 13 14C12.0276 14 11.0949 13.6137 10.4073 12.9261C9.71965 12.2384 9.33335 11.3058 9.33335 10.3333Z" fill="#FF9500"/>
<path d="M13.055 17.18C12.355 17.18 11.695 17.055 11.075 16.805C10.465 16.545 9.935 16.18 9.485 15.71C9.045 15.24 8.715 14.685 8.495 14.045L10.4 13.19C10.68 13.8 11.065 14.28 11.555 14.63C12.055 14.98 12.605 15.155 13.205 15.155C13.525 15.155 13.8 15.105 14.03 15.005C14.26 14.905 14.44 14.77 14.57 14.6C14.7 14.42 14.765 14.21 14.765 13.97C14.765 13.71 14.685 13.49 14.525 13.31C14.365 13.12 14.115 12.97 13.775 12.86L11.585 12.14C10.695 11.85 10.025 11.44 9.575 10.91C9.125 10.37 8.9 9.725 8.9 8.975C8.9 8.315 9.06 7.735 9.38 7.235C9.71 6.735 10.165 6.345 10.745 6.065C11.335 5.785 12.01 5.645 12.77 5.645C13.44 5.645 14.06 5.76 14.63 5.99C15.2 6.22 15.69 6.545 16.1 6.965C16.52 7.385 16.835 7.89 17.045 8.48L15.155 9.335C14.945 8.815 14.63 8.41 14.21 8.12C13.79 7.82 13.31 7.67 12.77 7.67C12.46 7.67 12.185 7.72 11.945 7.82C11.705 7.92 11.52 8.065 11.39 8.255C11.26 8.435 11.195 8.645 11.195 8.885C11.195 9.145 11.28 9.375 11.45 9.575C11.62 9.765 11.875 9.915 12.215 10.025L14.36 10.715C15.26 11.005 15.93 11.41 16.37 11.93C16.82 12.45 17.045 13.085 17.045 13.835C17.045 14.485 16.875 15.065 16.535 15.575C16.195 16.075 15.725 16.47 15.125 16.76C14.535 17.04 13.845 17.18 13.055 17.18Z" fill="white"/>
</g>
<defs>
<clipPath id="clip0_341_471">
<rect width="26" height="26" fill="white"/>
</clipPath>
</defs>
</svg>
