<svg width="26" height="26" viewBox="0 0 26 26" fill="none" xmlns="http://www.w3.org/2000/svg">
<g clip-path="url(#clip0_341_477)">
<path d="M5.18668 3.19734C7.26957 1.14592 10.0765 -0.00272829 13 4.86641e-06C15.928 4.86641e-06 18.7387 1.148 20.8133 3.19734C22.692 5.05067 23.6707 7.12534 23.9293 9.28001C24.1867 11.416 23.7267 13.56 22.8493 15.5707C21.108 19.5707 17.6467 23.208 14.3267 25.5747C13.9397 25.8515 13.4758 26.0004 13 26.0004C12.5242 26.0004 12.0603 25.8515 11.6733 25.5747C8.35335 23.208 4.89201 19.5693 3.14935 15.5707C2.27335 13.56 1.81468 11.416 2.07068 9.27867C2.32935 7.12534 3.30801 5.052 5.18668 3.19734ZM9.33335 10.3333C9.33335 9.36088 9.71965 8.42825 10.4073 7.74061C11.0949 7.05298 12.0276 6.66667 13 6.66667C13.9725 6.66667 14.9051 7.05298 15.5927 7.74061C16.2804 8.42825 16.6667 9.36088 16.6667 10.3333C16.6667 11.3058 16.2804 12.2384 15.5927 12.9261C14.9051 13.6137 13.9725 14 13 14C12.0276 14 11.0949 13.6137 10.4073 12.9261C9.71965 12.2384 9.33335 11.3058 9.33335 10.3333Z" fill="#FF3B30"/>
<path d="M8.99 17V5.825H16.505V7.85H11.315V10.385H16.205V12.41H11.315V14.975H16.505V17H8.99Z" fill="white"/>
</g>
<defs>
<clipPath id="clip0_341_477">
<rect width="26" height="26" fill="white"/>
</clipPath>
</defs>
</svg>
