<svg width="48" height="48" viewBox="0 0 48 48" fill="none" xmlns="http://www.w3.org/2000/svg">
<rect width="48" height="48" rx="24" fill="#F2F2F8"/>
<path fill-rule="evenodd" clip-rule="evenodd" d="M28 14C28.7956 14 29.5587 14.3161 30.1213 14.8787C30.6839 15.4413 31 16.2044 31 17V31C31 31.7956 30.6839 32.5587 30.1213 33.1213C29.5587 33.6839 28.7956 34 28 34H20C19.2044 34 18.4413 33.6839 17.8787 33.1213C17.3161 32.5587 17 31.7956 17 31V17C17 16.2044 17.3161 15.4413 17.8787 14.8787C18.4413 14.3161 19.2044 14 20 14H28ZM24 28C23.6022 28 23.2206 28.158 22.9393 28.4393C22.658 28.7206 22.5 29.1022 22.5 29.5C22.5 29.8978 22.658 30.2794 22.9393 30.5607C23.2206 30.842 23.6022 31 24 31C24.3978 31 24.7794 30.842 25.0607 30.5607C25.342 30.2794 25.5 29.8978 25.5 29.5C25.5 29.1022 25.342 28.7206 25.0607 28.4393C24.7794 28.158 24.3978 28 24 28ZM25.5 17H22.5C22.2348 17 21.9804 17.1054 21.7929 17.2929C21.6054 17.4804 21.5 17.7348 21.5 18C21.5 18.2652 21.6054 18.5196 21.7929 18.7071C21.9804 18.8946 22.2348 19 22.5 19H25.5C25.7652 19 26.0196 18.8946 26.2071 18.7071C26.3946 18.5196 26.5 18.2652 26.5 18C26.5 17.7348 26.3946 17.4804 26.2071 17.2929C26.0196 17.1054 25.7652 17 25.5 17Z" fill="url(#paint0_linear_360_506)"/>
<defs>
<linearGradient id="paint0_linear_360_506" x1="24" y1="14" x2="24" y2="34" gradientUnits="userSpaceOnUse">
<stop stop-color="#007AFF"/>
<stop offset="1" stop-color="#007AFF" stop-opacity="0.73"/>
</linearGradient>
</defs>
</svg>
