<svg width="48" height="48" viewBox="0 0 48 48" fill="none" xmlns="http://www.w3.org/2000/svg">
<rect width="48" height="48" rx="24" fill="#F2F2F8"/>
<path fill-rule="evenodd" clip-rule="evenodd" d="M27.847 15C28.019 15 28.191 15.003 28.355 15.065C28.8298 15.1896 29.2422 15.4845 29.5136 15.8935C29.785 16.3025 29.8966 16.7971 29.827 17.283L29.669 18.387L30.728 18.651C31.3769 18.8133 31.953 19.1879 32.3646 19.7151C32.7763 20.2424 32.9999 20.8921 33 21.561V30C33 30.7956 32.6839 31.5587 32.1213 32.1213C31.5587 32.6839 30.7956 33 30 33H18C17.2044 33 16.4413 32.6839 15.8787 32.1213C15.3161 31.5587 15 30.7956 15 30V21.562C15.0001 20.8931 15.2237 20.2434 15.6354 19.7161C16.047 19.1889 16.6231 18.8143 17.272 18.652L18.331 18.387L18.173 17.283C18.1034 16.7971 18.215 16.3025 18.4864 15.8935C18.7578 15.4845 19.1702 15.1896 19.645 15.065C19.81 15.003 19.981 15 20.153 15H27.847ZM24 19.4L25.92 17H22.08L24 19.4ZM27.71 17.964L25.553 20.66L27.205 22.486L27.708 17.966L27.71 17.964ZM20.29 17.964L20.794 22.485L22.446 20.659L20.291 17.964H20.29ZM28 26C27.7348 26 27.4804 26.1054 27.2929 26.2929C27.1054 26.4804 27 26.7348 27 27C27 27.2652 27.1054 27.5196 27.2929 27.7071C27.4804 27.8946 27.7348 28 28 28H29C29.2652 28 29.5196 27.8946 29.7071 27.7071C29.8946 27.5196 30 27.2652 30 27C30 26.7348 29.8946 26.4804 29.7071 26.2929C29.5196 26.1054 29.2652 26 29 26H28Z" fill="url(#paint0_linear_360_499)"/>
<defs>
<linearGradient id="paint0_linear_360_499" x1="24" y1="15" x2="24" y2="33" gradientUnits="userSpaceOnUse">
<stop stop-color="#FF9500"/>
<stop offset="1" stop-color="#FF9500" stop-opacity="0.73"/>
</linearGradient>
</defs>
</svg>
